#!OML:ASF F:\VICON\USERDATA\INSTALL\rory3\rory3.ASF
:FULLY-SPECIFIED
:DEGREES
4546
root 0.197816 16.024 -0.00962659 6.65265 -20.9114 -3.97032
lowerback 10.0091 4.64257 -2.61052
upperback 0.980913 5.79379 -1.33005
thorax -4.68893 2.89057 -0.734026
lowerneck -19.9814 -8.79464 -12.3248
upperneck 13.6439 -12.0229 17.5493
head 9.52229 -4.64326 6.3367
rclavicle 5.94366e-014 -3.18055e-015
rhumerus -3.36022 1.92062 -75.3536
rradius 109.493
rwrist -16.5752
rhand -8.26844 23.6398
rfingers 7.12502
rthumb 17.6505 -5.57907
lclavicle 5.94366e-014 -3.18055e-015
lhumerus -21.6735 -17.1196 89.8596
lradius 129.11
lwrist -3.0723
lhand -1.93113 8.32792
lfingers 7.12502
lthumb 23.7394 36.8816
rfemur 0.364689 -9.27478 19.0707
rtibia 53.2751
rfoot -17.6108 13.7588
rtoes -20.6284
lfemur -50.6642 -17.5447 3.62796
ltibia 34.812
lfoot 8.31425 -14.5831
ltoes -22.3088
4547
root 0.232789 16.0821 -0.143079 6.51686 -21.8484 -3.95523
lowerback 10.6157 4.6833 -2.76781
upperback 0.596565 5.81255 -1.08568
thorax -5.47217 2.90677 -0.473702
lowerneck -19.5398 -8.60144 -12.5035
upperneck 14.0532 -11.7378 17.2439
head 9.51961 -4.56091 6.32442
rclavicle 8.54774e-015 -2.22639e-014
rhumerus -2.24835 1.27389 -74.5057
rradius 111.611
rwrist -15.9514
rhand -8.71963 23.8598
rfingers 7.12502
rthumb 17.2163 -5.39751
lclavicle 8.54774e-015 -2.22639e-014
lhumerus -22.271 -16.796 89.976
lradius 129.16
lwrist -3.12494
lhand -2.42347 8.69849
lfingers 7.12502
lthumb 23.2672 37.3127
rfemur 0.246482 -8.54097 19.0911
rtibia 52.6271
rfoot -17.8453 13.942
rtoes -20.497
lfemur -49.6661 -17.3413 3.66073
ltibia 33.3769
lfoot 9.19154 -13.1751
ltoes -22.9165
4548
root 0.271306 16.1443 -0.264214 6.37015 -22.9116 -3.91735
lowerback 11.0145 4.77726 -2.75637
upperback 0.255396 5.92959 -0.911627
thorax -6.07518 2.96769 -0.373798
lowerneck -18.9491 -8.41927 -12.6406
upperneck 14.4178 -11.4735 16.8669
head 9.47003 -4.50156 6.27559
rclavicle -5.88403e-014 -7.95139e-016
rhumerus -1.22823 0.575573 -73.8101
rradius 113.732
rwrist -15.3879
rhand -8.99356 23.9976
rfingers 7.12502
rthumb 16.9526 -5.2826
lclavicle -5.88403e-014 -7.95139e-016
lhumerus -22.9301 -16.5898 90.1476
lradius 129.274
lwrist -3.06212
lhand -2.8129 8.99675
lfingers 7.12502
lthumb 22.8935 37.6577
rfemur 0.161999 -7.85737 19.0163
rtibia 51.8762
rfoot -18.0362 13.9909
rtoes -19.4659
lfemur -48.6 -17.0909 3.56368
ltibia 32.0242
lfoot 10.0789 -11.6368
ltoes -23.0431
4549
root 0.31396 16.2141 -0.372062 6.36558 -24.1597 -4.03998
lowerback 10.9098 4.86943 -2.33294
upperback 0.201334 6.11138 -0.885351
thorax -6.03551 3.04645 -0.602423
lowerneck -18.6477 -8.24026 -12.4508
upperneck 14.5301 -11.2403 16.4987
head 9.37456 -4.42888 6.15683
rclavicle -2.18663e-014 2.22639e-014
rhumerus 0.272182 -0.165725 -73.4204
rradius 115.782
rwrist -14.6936
rhand -9.26863 24.134
rfingers 7.12502
rthumb 16.6878 -5.16866
lclavicle -2.18663e-014 2.22639e-014
lhumerus -23.0064 -16.4566 89.8779
lradius 129.392
lwrist -2.91079
lhand -2.92341 8.95099
lfingers 7.12502
lthumb 22.7875 37.6251
rfemur 0.0329285 -7.26413 19.0079
rtibia 51.0417
rfoot -18.1912 13.9023
rtoes -18.0923
lfemur -47.5439 -16.7658 3.59909
ltibia 30.7912
lfoot 11.1824 -9.48303
ltoes -21.3118
4550
root 0.359545 16.2911 -0.476767 6.34921 -25.3722 -4.13384
lowerback 10.2499 4.84837 -1.59519
upperback 0.648418 6.18524 -1.07341
thorax -5.09683 3.06609 -1.12362
lowerneck -18.875 -8.05762 -12.043
upperneck 14.3623 -11.0253 16.3869
head 9.29187 -4.30962 6.07542
rclavicle 2.06736e-014 -3.18055e-015
rhumerus 2.59461 -0.950915 -73.4834
rradius 117.648
rwrist -13.8477
rhand -9.77884 24.3176
rfingers 7.12502
rthumb 16.1966 -5.02576
lclavicle 2.06736e-014 -3.18055e-015
lhumerus -22.09 -16.3512 88.9883
lradius 129.475
lwrist -2.82679
lhand -3.17883 8.88498
lfingers 7.12502
lthumb 22.5423 37.589
rfemur -0.0363607 -6.95808 18.9051
rtibia 50.1537
rfoot -18.3267 13.835
rtoes -17.1144
lfemur -46.5373 -16.6594 3.68101
ltibia 29.7524
lfoot 12.1336 -6.69991
ltoes -17.0938
4551
root 0.405888 16.3684 -0.578494 6.3148 -26.4736 -4.14923
lowerback 10.3069 4.85926 -1.36925
upperback 0.571732 6.23007 -0.973
thorax -5.19615 3.08389 -1.16017
lowerneck -18.9178 -7.8887 -11.9159
upperneck 14.7493 -10.8078 16.09
head 9.36733 -4.21806 5.99173
rclavicle -7.13637e-014 1.90833e-014
rhumerus 4.09771 -1.20853 -73.2171
rradius 119.468
rwrist -13.2898
rhand -10.4242 24.4937
rfingers 7.12502
rthumb 15.5751 -4.89915
lclavicle -7.13637e-014 1.90833e-014
lhumerus -22.1152 -16.0347 88.8473
lradius 129.569
lwrist -2.97663
lhand -3.49342 8.57617
lfingers 7.12502
lthumb 22.2404 37.3165
rfemur -0.0750479 -6.83632 18.7053
rtibia 49.2255
rfoot -18.2454 13.9458
rtoes -15.4235
lfemur -45.509 -16.4534 3.40603
ltibia 28.9937
lfoot 12.6446 -4.33138
ltoes -15.3756
4552
root 0.454711 16.4438 -0.674078 6.30805 -27.6252 -4.11694
lowerback 10.307 4.89188 -1.13629
upperback 0.487941 6.30517 -0.897833
thorax -5.26723 3.1163 -1.22619
lowerneck -18.943 -7.7641 -11.8653
upperneck 15.1237 -10.6507 15.8852
head 9.45727 -4.15219 5.94422
rclavicle -2.62396e-014 -8.74653e-015
rhumerus 5.60964 -1.28475 -73.0047
rradius 121.118
rwrist -13.1942
rhand -11.0197 24.8564
rfingers 7.12502
rthumb 15.0015 -4.58022
lclavicle -2.62396e-014 -8.74653e-015
lhumerus -22.1512 -15.666 88.7615
lradius 129.681
lwrist -3.26577
lhand -3.42502 8.06224
lfingers 7.12502
lthumb 22.306 36.7947
rfemur -0.140679 -6.71297 18.4281
rtibia 48.2601
rfoot -18.0478 14.0472
rtoes -13.5362
lfemur -44.4464 -15.8494 2.69632
ltibia 28.5735
lfoot 12.8156 -2.76097
ltoes -16.8234
